<mxfile host="app.diagrams.net" modified="2024-05-31T11:21:12.659Z" agent="Mozilla/5.0 (Windows NT 10.0; Win64; x64) AppleWebKit/537.36 (KHTML, like Gecko) Chrome/125.0.0.0 Safari/537.36" version="24.4.10" etag="a3vMOaUsSPw5qr9Gpdxj" type="device">
  <diagram id="72fyGBLiSWlaVEYCAcmJ" name="Page-1">
    <mxGraphModel dx="2386" dy="572" grid="1" gridSize="10" guides="1" tooltips="1" connect="1" arrows="1" fold="1" page="1" pageScale="1" pageWidth="850" pageHeight="1100" math="0" shadow="0">
      <root>
        <mxCell id="0" />
        <mxCell id="1" parent="0" />
        <mxCell id="aapR3voiLKvlNVhLNO4_-8" value="Job subsystem" style="swimlane;whiteSpace=wrap;html=1;startSize=23;fillColor=#dae8fc;strokeColor=#6c8ebf;" vertex="1" parent="1">
          <mxGeometry x="140" y="80" width="660" height="910" as="geometry" />
        </mxCell>
        <mxCell id="aapR3voiLKvlNVhLNO4_-9" style="edgeStyle=orthogonalEdgeStyle;rounded=0;orthogonalLoop=1;jettySize=auto;html=1;entryX=0;entryY=0.5;entryDx=0;entryDy=0;dashed=1;" edge="1" parent="aapR3voiLKvlNVhLNO4_-8" source="aapR3voiLKvlNVhLNO4_-11" target="aapR3voiLKvlNVhLNO4_-47">
          <mxGeometry relative="1" as="geometry" />
        </mxCell>
        <mxCell id="aapR3voiLKvlNVhLNO4_-10" value="&amp;lt;&amp;lt;includes&amp;gt;&amp;gt;" style="edgeLabel;html=1;align=center;verticalAlign=middle;resizable=0;points=[];" vertex="1" connectable="0" parent="aapR3voiLKvlNVhLNO4_-9">
          <mxGeometry x="-0.1072" y="3" relative="1" as="geometry">
            <mxPoint x="7" y="-7" as="offset" />
          </mxGeometry>
        </mxCell>
        <mxCell id="aapR3voiLKvlNVhLNO4_-82" style="edgeStyle=orthogonalEdgeStyle;rounded=0;orthogonalLoop=1;jettySize=auto;html=1;dashed=1;endArrow=none;endFill=0;startArrow=classic;startFill=1;" edge="1" parent="aapR3voiLKvlNVhLNO4_-8" source="aapR3voiLKvlNVhLNO4_-11" target="aapR3voiLKvlNVhLNO4_-72">
          <mxGeometry relative="1" as="geometry">
            <mxPoint x="50" y="180" as="targetPoint" />
            <Array as="points">
              <mxPoint x="80" y="222" />
              <mxPoint x="60" y="222" />
            </Array>
          </mxGeometry>
        </mxCell>
        <mxCell id="aapR3voiLKvlNVhLNO4_-91" value="&amp;lt;&amp;lt;extends&amp;gt;&amp;gt;" style="edgeLabel;html=1;align=center;verticalAlign=middle;resizable=0;points=[];" vertex="1" connectable="0" parent="aapR3voiLKvlNVhLNO4_-82">
          <mxGeometry x="0.3692" y="-1" relative="1" as="geometry">
            <mxPoint x="-6" y="7" as="offset" />
          </mxGeometry>
        </mxCell>
        <mxCell id="aapR3voiLKvlNVhLNO4_-84" style="edgeStyle=orthogonalEdgeStyle;rounded=0;orthogonalLoop=1;jettySize=auto;html=1;entryX=0.5;entryY=1;entryDx=0;entryDy=0;dashed=1;endArrow=none;endFill=0;startArrow=classic;startFill=1;" edge="1" parent="aapR3voiLKvlNVhLNO4_-8" source="aapR3voiLKvlNVhLNO4_-11" target="aapR3voiLKvlNVhLNO4_-76">
          <mxGeometry relative="1" as="geometry">
            <Array as="points">
              <mxPoint x="140" y="230" />
              <mxPoint x="240" y="230" />
            </Array>
          </mxGeometry>
        </mxCell>
        <mxCell id="aapR3voiLKvlNVhLNO4_-89" value="&amp;lt;&amp;lt;extends&amp;gt;&amp;gt;" style="edgeLabel;html=1;align=center;verticalAlign=middle;resizable=0;points=[];" vertex="1" connectable="0" parent="aapR3voiLKvlNVhLNO4_-84">
          <mxGeometry x="0.5753" y="3" relative="1" as="geometry">
            <mxPoint as="offset" />
          </mxGeometry>
        </mxCell>
        <mxCell id="aapR3voiLKvlNVhLNO4_-11" value="View jobs" style="ellipse;whiteSpace=wrap;html=1;" vertex="1" parent="aapR3voiLKvlNVhLNO4_-8">
          <mxGeometry x="55" y="262.5" width="100" height="40" as="geometry" />
        </mxCell>
        <mxCell id="aapR3voiLKvlNVhLNO4_-12" style="edgeStyle=orthogonalEdgeStyle;rounded=0;orthogonalLoop=1;jettySize=auto;html=1;entryX=0;entryY=0.5;entryDx=0;entryDy=0;dashed=1;" edge="1" parent="aapR3voiLKvlNVhLNO4_-8" source="aapR3voiLKvlNVhLNO4_-14" target="aapR3voiLKvlNVhLNO4_-21">
          <mxGeometry relative="1" as="geometry" />
        </mxCell>
        <mxCell id="aapR3voiLKvlNVhLNO4_-13" value="&amp;lt;&amp;lt;Includes&amp;gt;&amp;gt;" style="edgeLabel;html=1;align=center;verticalAlign=middle;resizable=0;points=[];" vertex="1" connectable="0" parent="aapR3voiLKvlNVhLNO4_-12">
          <mxGeometry x="-0.196" y="-1" relative="1" as="geometry">
            <mxPoint as="offset" />
          </mxGeometry>
        </mxCell>
        <mxCell id="aapR3voiLKvlNVhLNO4_-14" value="Edit Jobs" style="ellipse;whiteSpace=wrap;html=1;" vertex="1" parent="aapR3voiLKvlNVhLNO4_-8">
          <mxGeometry x="75" y="570" width="80" height="40" as="geometry" />
        </mxCell>
        <mxCell id="aapR3voiLKvlNVhLNO4_-15" style="edgeStyle=orthogonalEdgeStyle;rounded=0;orthogonalLoop=1;jettySize=auto;html=1;entryX=0;entryY=0.5;entryDx=0;entryDy=0;dashed=1;" edge="1" parent="aapR3voiLKvlNVhLNO4_-8" source="aapR3voiLKvlNVhLNO4_-17" target="aapR3voiLKvlNVhLNO4_-35">
          <mxGeometry relative="1" as="geometry" />
        </mxCell>
        <mxCell id="aapR3voiLKvlNVhLNO4_-16" value="&amp;lt;&amp;lt;includes&amp;gt;&amp;gt;" style="edgeLabel;html=1;align=center;verticalAlign=middle;resizable=0;points=[];" vertex="1" connectable="0" parent="aapR3voiLKvlNVhLNO4_-15">
          <mxGeometry x="-0.0083" relative="1" as="geometry">
            <mxPoint y="-10" as="offset" />
          </mxGeometry>
        </mxCell>
        <mxCell id="aapR3voiLKvlNVhLNO4_-17" value="Delete job&amp;nbsp;" style="ellipse;whiteSpace=wrap;html=1;" vertex="1" parent="aapR3voiLKvlNVhLNO4_-8">
          <mxGeometry x="65" y="650" width="110" height="40" as="geometry" />
        </mxCell>
        <mxCell id="aapR3voiLKvlNVhLNO4_-18" value="Add job" style="ellipse;whiteSpace=wrap;html=1;" vertex="1" parent="aapR3voiLKvlNVhLNO4_-8">
          <mxGeometry x="65" y="765" width="110" height="40" as="geometry" />
        </mxCell>
        <mxCell id="aapR3voiLKvlNVhLNO4_-19" style="edgeStyle=orthogonalEdgeStyle;rounded=0;orthogonalLoop=1;jettySize=auto;html=1;entryX=0;entryY=0.5;entryDx=0;entryDy=0;dashed=1;" edge="1" parent="aapR3voiLKvlNVhLNO4_-8" source="aapR3voiLKvlNVhLNO4_-21" target="aapR3voiLKvlNVhLNO4_-28">
          <mxGeometry relative="1" as="geometry" />
        </mxCell>
        <mxCell id="aapR3voiLKvlNVhLNO4_-20" value="&amp;lt;&amp;lt;includes&amp;gt;&amp;gt;" style="edgeLabel;html=1;align=center;verticalAlign=middle;resizable=0;points=[];" vertex="1" connectable="0" parent="aapR3voiLKvlNVhLNO4_-19">
          <mxGeometry x="-0.2381" y="1" relative="1" as="geometry">
            <mxPoint x="3" y="-19" as="offset" />
          </mxGeometry>
        </mxCell>
        <mxCell id="aapR3voiLKvlNVhLNO4_-21" value="Change any details of a job" style="ellipse;whiteSpace=wrap;html=1;" vertex="1" parent="aapR3voiLKvlNVhLNO4_-8">
          <mxGeometry x="235" y="561" width="100" height="58" as="geometry" />
        </mxCell>
        <mxCell id="aapR3voiLKvlNVhLNO4_-22" style="edgeStyle=orthogonalEdgeStyle;rounded=0;orthogonalLoop=1;jettySize=auto;html=1;dashed=1;" edge="1" parent="aapR3voiLKvlNVhLNO4_-8" source="aapR3voiLKvlNVhLNO4_-24" target="aapR3voiLKvlNVhLNO4_-14">
          <mxGeometry relative="1" as="geometry">
            <Array as="points">
              <mxPoint x="395" y="410" />
              <mxPoint x="115" y="410" />
            </Array>
          </mxGeometry>
        </mxCell>
        <mxCell id="aapR3voiLKvlNVhLNO4_-23" value="&amp;lt;&amp;lt;extends&amp;gt;&amp;gt;" style="edgeLabel;html=1;align=center;verticalAlign=middle;resizable=0;points=[];" vertex="1" connectable="0" parent="aapR3voiLKvlNVhLNO4_-22">
          <mxGeometry x="-0.3373" relative="1" as="geometry">
            <mxPoint as="offset" />
          </mxGeometry>
        </mxCell>
        <mxCell id="aapR3voiLKvlNVhLNO4_-24" value="All jobs" style="ellipse;whiteSpace=wrap;html=1;" vertex="1" parent="aapR3voiLKvlNVhLNO4_-8">
          <mxGeometry x="352.5" y="370" width="85" height="30" as="geometry" />
        </mxCell>
        <mxCell id="aapR3voiLKvlNVhLNO4_-25" style="edgeStyle=orthogonalEdgeStyle;rounded=0;orthogonalLoop=1;jettySize=auto;html=1;dashed=1;" edge="1" parent="aapR3voiLKvlNVhLNO4_-8" source="aapR3voiLKvlNVhLNO4_-27" target="aapR3voiLKvlNVhLNO4_-14">
          <mxGeometry relative="1" as="geometry">
            <mxPoint x="100" y="330" as="targetPoint" />
            <Array as="points">
              <mxPoint x="395" y="500" />
              <mxPoint x="110" y="500" />
            </Array>
          </mxGeometry>
        </mxCell>
        <mxCell id="aapR3voiLKvlNVhLNO4_-26" value="&amp;lt;&amp;lt;extends&amp;gt;&amp;gt;" style="edgeLabel;html=1;align=center;verticalAlign=middle;resizable=0;points=[];" vertex="1" connectable="0" parent="aapR3voiLKvlNVhLNO4_-25">
          <mxGeometry y="1" relative="1" as="geometry">
            <mxPoint as="offset" />
          </mxGeometry>
        </mxCell>
        <mxCell id="aapR3voiLKvlNVhLNO4_-27" value="Subset of jobs" style="ellipse;whiteSpace=wrap;html=1;" vertex="1" parent="aapR3voiLKvlNVhLNO4_-8">
          <mxGeometry x="335" y="440" width="120" height="40" as="geometry" />
        </mxCell>
        <mxCell id="aapR3voiLKvlNVhLNO4_-28" value="Save to database" style="ellipse;whiteSpace=wrap;html=1;" vertex="1" parent="aapR3voiLKvlNVhLNO4_-8">
          <mxGeometry x="450" y="570" width="80" height="40" as="geometry" />
        </mxCell>
        <mxCell id="aapR3voiLKvlNVhLNO4_-29" value="All jobs under me" style="ellipse;whiteSpace=wrap;html=1;" vertex="1" parent="aapR3voiLKvlNVhLNO4_-8">
          <mxGeometry x="520" y="400" width="110" height="50" as="geometry" />
        </mxCell>
        <mxCell id="aapR3voiLKvlNVhLNO4_-30" value="All jobs allocated to me" style="ellipse;whiteSpace=wrap;html=1;" vertex="1" parent="aapR3voiLKvlNVhLNO4_-8">
          <mxGeometry x="535" y="463" width="100" height="50" as="geometry" />
        </mxCell>
        <mxCell id="aapR3voiLKvlNVhLNO4_-31" style="edgeStyle=orthogonalEdgeStyle;rounded=0;orthogonalLoop=1;jettySize=auto;html=1;entryX=0.983;entryY=0.747;entryDx=0;entryDy=0;entryPerimeter=0;dashed=1;" edge="1" parent="aapR3voiLKvlNVhLNO4_-8" source="aapR3voiLKvlNVhLNO4_-30" target="aapR3voiLKvlNVhLNO4_-27">
          <mxGeometry relative="1" as="geometry">
            <Array as="points">
              <mxPoint x="470" y="488" />
              <mxPoint x="470" y="470" />
            </Array>
          </mxGeometry>
        </mxCell>
        <mxCell id="aapR3voiLKvlNVhLNO4_-32" value="&amp;lt;&amp;lt;extend&amp;gt;&amp;gt;" style="edgeLabel;html=1;align=center;verticalAlign=middle;resizable=0;points=[];" vertex="1" connectable="0" parent="aapR3voiLKvlNVhLNO4_-31">
          <mxGeometry x="0.0085" y="-3" relative="1" as="geometry">
            <mxPoint x="15" y="15" as="offset" />
          </mxGeometry>
        </mxCell>
        <mxCell id="aapR3voiLKvlNVhLNO4_-33" style="edgeStyle=orthogonalEdgeStyle;rounded=0;orthogonalLoop=1;jettySize=auto;html=1;entryX=0.996;entryY=0.362;entryDx=0;entryDy=0;entryPerimeter=0;dashed=1;" edge="1" parent="aapR3voiLKvlNVhLNO4_-8" source="aapR3voiLKvlNVhLNO4_-29" target="aapR3voiLKvlNVhLNO4_-27">
          <mxGeometry relative="1" as="geometry">
            <Array as="points">
              <mxPoint x="470" y="425" />
              <mxPoint x="470" y="454" />
            </Array>
          </mxGeometry>
        </mxCell>
        <mxCell id="aapR3voiLKvlNVhLNO4_-34" value="&amp;lt;&amp;lt;extends&amp;gt;&amp;gt;" style="edgeLabel;html=1;align=center;verticalAlign=middle;resizable=0;points=[];" vertex="1" connectable="0" parent="aapR3voiLKvlNVhLNO4_-33">
          <mxGeometry x="-0.2554" y="-2" relative="1" as="geometry">
            <mxPoint x="9" y="-13" as="offset" />
          </mxGeometry>
        </mxCell>
        <mxCell id="aapR3voiLKvlNVhLNO4_-35" value="Flag the job for deletion" style="ellipse;whiteSpace=wrap;html=1;" vertex="1" parent="aapR3voiLKvlNVhLNO4_-8">
          <mxGeometry x="385" y="640" width="120" height="60" as="geometry" />
        </mxCell>
        <mxCell id="aapR3voiLKvlNVhLNO4_-36" style="edgeStyle=orthogonalEdgeStyle;rounded=0;orthogonalLoop=1;jettySize=auto;html=1;entryX=0;entryY=0.5;entryDx=0;entryDy=0;dashed=1;" edge="1" parent="aapR3voiLKvlNVhLNO4_-8" source="aapR3voiLKvlNVhLNO4_-38" target="aapR3voiLKvlNVhLNO4_-39">
          <mxGeometry relative="1" as="geometry" />
        </mxCell>
        <mxCell id="aapR3voiLKvlNVhLNO4_-37" value="&amp;lt;&amp;lt;includes&amp;gt;&amp;gt;" style="edgeLabel;html=1;align=center;verticalAlign=middle;resizable=0;points=[];" vertex="1" connectable="0" parent="aapR3voiLKvlNVhLNO4_-36">
          <mxGeometry x="-0.0727" y="4" relative="1" as="geometry">
            <mxPoint y="-11" as="offset" />
          </mxGeometry>
        </mxCell>
        <mxCell id="aapR3voiLKvlNVhLNO4_-38" value="Enter all job detials" style="ellipse;whiteSpace=wrap;html=1;" vertex="1" parent="aapR3voiLKvlNVhLNO4_-8">
          <mxGeometry x="270" y="760" width="130" height="50" as="geometry" />
        </mxCell>
        <mxCell id="aapR3voiLKvlNVhLNO4_-39" value="Save to databse" style="ellipse;whiteSpace=wrap;html=1;" vertex="1" parent="aapR3voiLKvlNVhLNO4_-8">
          <mxGeometry x="580" y="762.5" width="60" height="45" as="geometry" />
        </mxCell>
        <mxCell id="aapR3voiLKvlNVhLNO4_-40" style="edgeStyle=orthogonalEdgeStyle;rounded=0;orthogonalLoop=1;jettySize=auto;html=1;dashed=1;" edge="1" parent="aapR3voiLKvlNVhLNO4_-8" source="aapR3voiLKvlNVhLNO4_-27" target="aapR3voiLKvlNVhLNO4_-11">
          <mxGeometry relative="1" as="geometry">
            <mxPoint x="150" y="510" as="targetPoint" />
            <Array as="points">
              <mxPoint x="105" y="450" />
            </Array>
          </mxGeometry>
        </mxCell>
        <mxCell id="aapR3voiLKvlNVhLNO4_-41" value="&amp;lt;&amp;lt;extends&amp;gt;&amp;gt;" style="edgeLabel;html=1;align=center;verticalAlign=middle;resizable=0;points=[];" vertex="1" connectable="0" parent="aapR3voiLKvlNVhLNO4_-40">
          <mxGeometry x="0.1075" y="2" relative="1" as="geometry">
            <mxPoint x="81" y="-2" as="offset" />
          </mxGeometry>
        </mxCell>
        <mxCell id="aapR3voiLKvlNVhLNO4_-42" style="edgeStyle=orthogonalEdgeStyle;rounded=0;orthogonalLoop=1;jettySize=auto;html=1;dashed=1;entryX=0.702;entryY=1.021;entryDx=0;entryDy=0;entryPerimeter=0;" edge="1" parent="aapR3voiLKvlNVhLNO4_-8" source="aapR3voiLKvlNVhLNO4_-24" target="aapR3voiLKvlNVhLNO4_-11">
          <mxGeometry relative="1" as="geometry">
            <mxPoint x="130" y="310" as="targetPoint" />
            <Array as="points">
              <mxPoint x="395" y="340" />
              <mxPoint x="125" y="340" />
            </Array>
          </mxGeometry>
        </mxCell>
        <mxCell id="aapR3voiLKvlNVhLNO4_-43" value="&amp;lt;&amp;lt;extends&amp;gt;&amp;gt;" style="edgeLabel;html=1;align=center;verticalAlign=middle;resizable=0;points=[];" vertex="1" connectable="0" parent="aapR3voiLKvlNVhLNO4_-42">
          <mxGeometry x="-0.4998" y="-2" relative="1" as="geometry">
            <mxPoint as="offset" />
          </mxGeometry>
        </mxCell>
        <mxCell id="aapR3voiLKvlNVhLNO4_-44" value="Display information" style="ellipse;whiteSpace=wrap;html=1;" vertex="1" parent="aapR3voiLKvlNVhLNO4_-8">
          <mxGeometry x="467.5" y="260" width="112.5" height="45" as="geometry" />
        </mxCell>
        <mxCell id="aapR3voiLKvlNVhLNO4_-45" style="edgeStyle=orthogonalEdgeStyle;rounded=0;orthogonalLoop=1;jettySize=auto;html=1;entryX=0;entryY=0.5;entryDx=0;entryDy=0;dashed=1;" edge="1" parent="aapR3voiLKvlNVhLNO4_-8" source="aapR3voiLKvlNVhLNO4_-47" target="aapR3voiLKvlNVhLNO4_-44">
          <mxGeometry relative="1" as="geometry" />
        </mxCell>
        <mxCell id="aapR3voiLKvlNVhLNO4_-46" value="&amp;lt;&amp;lt;includes&amp;gt;&amp;gt;" style="edgeLabel;html=1;align=center;verticalAlign=middle;resizable=0;points=[];" vertex="1" connectable="0" parent="aapR3voiLKvlNVhLNO4_-45">
          <mxGeometry x="-0.5776" y="4" relative="1" as="geometry">
            <mxPoint x="25" y="-6" as="offset" />
          </mxGeometry>
        </mxCell>
        <mxCell id="aapR3voiLKvlNVhLNO4_-47" value="Retrieve information" style="ellipse;whiteSpace=wrap;html=1;" vertex="1" parent="aapR3voiLKvlNVhLNO4_-8">
          <mxGeometry x="270" y="262.5" width="80" height="40" as="geometry" />
        </mxCell>
        <mxCell id="aapR3voiLKvlNVhLNO4_-48" style="edgeStyle=orthogonalEdgeStyle;rounded=0;orthogonalLoop=1;jettySize=auto;html=1;entryX=0;entryY=0.5;entryDx=0;entryDy=0;dashed=1;" edge="1" parent="aapR3voiLKvlNVhLNO4_-8" source="aapR3voiLKvlNVhLNO4_-18" target="aapR3voiLKvlNVhLNO4_-38">
          <mxGeometry relative="1" as="geometry" />
        </mxCell>
        <mxCell id="aapR3voiLKvlNVhLNO4_-49" value="&amp;lt;&amp;lt;includes&amp;gt;&amp;gt;" style="edgeLabel;html=1;align=center;verticalAlign=middle;resizable=0;points=[];" vertex="1" connectable="0" parent="aapR3voiLKvlNVhLNO4_-48">
          <mxGeometry x="-0.1745" relative="1" as="geometry">
            <mxPoint y="-20" as="offset" />
          </mxGeometry>
        </mxCell>
        <mxCell id="aapR3voiLKvlNVhLNO4_-50" style="edgeStyle=orthogonalEdgeStyle;rounded=0;orthogonalLoop=1;jettySize=auto;html=1;" edge="1" parent="aapR3voiLKvlNVhLNO4_-8" source="aapR3voiLKvlNVhLNO4_-51" target="aapR3voiLKvlNVhLNO4_-57">
          <mxGeometry relative="1" as="geometry">
            <Array as="points">
              <mxPoint x="-180" y="450" />
              <mxPoint x="-180" y="540" />
            </Array>
          </mxGeometry>
        </mxCell>
        <mxCell id="aapR3voiLKvlNVhLNO4_-51" value="User" style="shape=umlActor;verticalLabelPosition=bottom;verticalAlign=top;html=1;outlineConnect=0;" vertex="1" parent="aapR3voiLKvlNVhLNO4_-8">
          <mxGeometry x="-240" y="420" width="30" height="60" as="geometry" />
        </mxCell>
        <mxCell id="aapR3voiLKvlNVhLNO4_-52" style="edgeStyle=orthogonalEdgeStyle;rounded=0;orthogonalLoop=1;jettySize=auto;html=1;endArrow=none;endFill=0;fillColor=#f8cecc;strokeColor=#b85450;" edge="1" parent="aapR3voiLKvlNVhLNO4_-8" source="aapR3voiLKvlNVhLNO4_-54" target="aapR3voiLKvlNVhLNO4_-11">
          <mxGeometry relative="1" as="geometry">
            <Array as="points">
              <mxPoint x="-20" y="370" />
              <mxPoint x="-20" y="280" />
            </Array>
          </mxGeometry>
        </mxCell>
        <mxCell id="aapR3voiLKvlNVhLNO4_-53" style="edgeStyle=orthogonalEdgeStyle;rounded=0;orthogonalLoop=1;jettySize=auto;html=1;entryX=0;entryY=0.5;entryDx=0;entryDy=0;endArrow=none;endFill=0;fillColor=#f8cecc;strokeColor=#b85450;" edge="1" parent="aapR3voiLKvlNVhLNO4_-8" source="aapR3voiLKvlNVhLNO4_-54" target="aapR3voiLKvlNVhLNO4_-27">
          <mxGeometry relative="1" as="geometry">
            <Array as="points">
              <mxPoint x="-20" y="370" />
              <mxPoint x="-20" y="460" />
            </Array>
          </mxGeometry>
        </mxCell>
        <mxCell id="aapR3voiLKvlNVhLNO4_-54" value="General user" style="shape=umlActor;verticalLabelPosition=bottom;verticalAlign=top;html=1;outlineConnect=0;" vertex="1" parent="aapR3voiLKvlNVhLNO4_-8">
          <mxGeometry x="-120" y="340" width="30" height="60" as="geometry" />
        </mxCell>
        <mxCell id="aapR3voiLKvlNVhLNO4_-55" style="edgeStyle=orthogonalEdgeStyle;rounded=0;orthogonalLoop=1;jettySize=auto;html=1;endArrow=none;endFill=0;fillColor=#e1d5e7;strokeColor=#9673a6;" edge="1" parent="aapR3voiLKvlNVhLNO4_-8" source="aapR3voiLKvlNVhLNO4_-57" target="aapR3voiLKvlNVhLNO4_-11">
          <mxGeometry relative="1" as="geometry">
            <Array as="points">
              <mxPoint x="-10" y="530" />
              <mxPoint x="-10" y="280" />
            </Array>
          </mxGeometry>
        </mxCell>
        <mxCell id="aapR3voiLKvlNVhLNO4_-56" style="edgeStyle=orthogonalEdgeStyle;rounded=0;orthogonalLoop=1;jettySize=auto;html=1;entryX=0;entryY=1;entryDx=0;entryDy=0;endArrow=none;endFill=0;fillColor=#e1d5e7;strokeColor=#9673a6;" edge="1" parent="aapR3voiLKvlNVhLNO4_-8" source="aapR3voiLKvlNVhLNO4_-57" target="aapR3voiLKvlNVhLNO4_-24">
          <mxGeometry relative="1" as="geometry">
            <Array as="points">
              <mxPoint x="-10" y="530" />
              <mxPoint x="-10" y="396" />
            </Array>
          </mxGeometry>
        </mxCell>
        <mxCell id="aapR3voiLKvlNVhLNO4_-108" style="edgeStyle=orthogonalEdgeStyle;rounded=0;orthogonalLoop=1;jettySize=auto;html=1;entryX=0;entryY=0.5;entryDx=0;entryDy=0;endArrow=none;endFill=0;fillColor=#e1d5e7;strokeColor=#9673a6;" edge="1" parent="aapR3voiLKvlNVhLNO4_-8" source="aapR3voiLKvlNVhLNO4_-57" target="aapR3voiLKvlNVhLNO4_-104">
          <mxGeometry relative="1" as="geometry">
            <Array as="points">
              <mxPoint x="-10" y="530" />
              <mxPoint x="-10" y="875" />
            </Array>
          </mxGeometry>
        </mxCell>
        <mxCell id="aapR3voiLKvlNVhLNO4_-57" value="Managerial" style="shape=umlActor;verticalLabelPosition=bottom;verticalAlign=top;html=1;outlineConnect=0;" vertex="1" parent="aapR3voiLKvlNVhLNO4_-8">
          <mxGeometry x="-120" y="500" width="30" height="60" as="geometry" />
        </mxCell>
        <mxCell id="aapR3voiLKvlNVhLNO4_-58" style="edgeStyle=orthogonalEdgeStyle;rounded=0;orthogonalLoop=1;jettySize=auto;html=1;entryX=0.5;entryY=0.5;entryDx=0;entryDy=0;entryPerimeter=0;" edge="1" parent="aapR3voiLKvlNVhLNO4_-8" source="aapR3voiLKvlNVhLNO4_-51" target="aapR3voiLKvlNVhLNO4_-54">
          <mxGeometry relative="1" as="geometry">
            <Array as="points">
              <mxPoint x="-180" y="450" />
              <mxPoint x="-180" y="370" />
            </Array>
          </mxGeometry>
        </mxCell>
        <mxCell id="aapR3voiLKvlNVhLNO4_-59" value="API" style="shape=umlActor;verticalLabelPosition=bottom;verticalAlign=top;html=1;outlineConnect=0;" vertex="1" parent="aapR3voiLKvlNVhLNO4_-8">
          <mxGeometry x="690" y="490" width="30" height="60" as="geometry" />
        </mxCell>
        <mxCell id="aapR3voiLKvlNVhLNO4_-60" style="edgeStyle=orthogonalEdgeStyle;rounded=0;orthogonalLoop=1;jettySize=auto;html=1;endArrow=none;endFill=0;entryX=0;entryY=0.5;entryDx=0;entryDy=0;fillColor=#e1d5e7;strokeColor=#9673a6;" edge="1" parent="aapR3voiLKvlNVhLNO4_-8" source="aapR3voiLKvlNVhLNO4_-57" target="aapR3voiLKvlNVhLNO4_-17">
          <mxGeometry relative="1" as="geometry">
            <mxPoint x="60" y="670" as="targetPoint" />
            <Array as="points">
              <mxPoint x="-10" y="530" />
              <mxPoint x="-10" y="670" />
            </Array>
          </mxGeometry>
        </mxCell>
        <mxCell id="aapR3voiLKvlNVhLNO4_-61" style="edgeStyle=orthogonalEdgeStyle;rounded=0;orthogonalLoop=1;jettySize=auto;html=1;entryX=0.045;entryY=0.417;entryDx=0;entryDy=0;entryPerimeter=0;endArrow=none;endFill=0;fillColor=#e1d5e7;strokeColor=#9673a6;" edge="1" parent="aapR3voiLKvlNVhLNO4_-8" source="aapR3voiLKvlNVhLNO4_-57" target="aapR3voiLKvlNVhLNO4_-18">
          <mxGeometry relative="1" as="geometry">
            <Array as="points">
              <mxPoint x="-10" y="530" />
              <mxPoint x="-10" y="782" />
            </Array>
          </mxGeometry>
        </mxCell>
        <mxCell id="aapR3voiLKvlNVhLNO4_-62" style="edgeStyle=orthogonalEdgeStyle;rounded=0;orthogonalLoop=1;jettySize=auto;html=1;endArrow=none;endFill=0;entryX=0.315;entryY=0.019;entryDx=0;entryDy=0;entryPerimeter=0;fillColor=#f8cecc;strokeColor=#b85450;" edge="1" parent="aapR3voiLKvlNVhLNO4_-8" source="aapR3voiLKvlNVhLNO4_-54" target="aapR3voiLKvlNVhLNO4_-14">
          <mxGeometry relative="1" as="geometry">
            <Array as="points">
              <mxPoint x="-20" y="370" />
              <mxPoint x="-20" y="460" />
              <mxPoint x="100" y="460" />
            </Array>
            <mxPoint x="100" y="593" as="targetPoint" />
          </mxGeometry>
        </mxCell>
        <mxCell id="aapR3voiLKvlNVhLNO4_-64" style="edgeStyle=orthogonalEdgeStyle;rounded=0;orthogonalLoop=1;jettySize=auto;html=1;entryX=0.5;entryY=0.5;entryDx=0;entryDy=0;entryPerimeter=0;endArrow=none;endFill=0;fillColor=#d5e8d4;strokeColor=#82b366;" edge="1" parent="aapR3voiLKvlNVhLNO4_-8" source="aapR3voiLKvlNVhLNO4_-28" target="aapR3voiLKvlNVhLNO4_-59">
          <mxGeometry relative="1" as="geometry">
            <Array as="points">
              <mxPoint x="670" y="572" />
              <mxPoint x="670" y="520" />
            </Array>
          </mxGeometry>
        </mxCell>
        <mxCell id="aapR3voiLKvlNVhLNO4_-65" style="edgeStyle=orthogonalEdgeStyle;rounded=0;orthogonalLoop=1;jettySize=auto;html=1;endArrow=none;endFill=0;fillColor=#d5e8d4;strokeColor=#82b366;" edge="1" parent="aapR3voiLKvlNVhLNO4_-8" source="aapR3voiLKvlNVhLNO4_-47" target="aapR3voiLKvlNVhLNO4_-59">
          <mxGeometry relative="1" as="geometry">
            <Array as="points">
              <mxPoint x="310" y="210" />
              <mxPoint x="700" y="210" />
            </Array>
          </mxGeometry>
        </mxCell>
        <mxCell id="aapR3voiLKvlNVhLNO4_-66" style="edgeStyle=orthogonalEdgeStyle;rounded=0;orthogonalLoop=1;jettySize=auto;html=1;endArrow=none;endFill=0;fillColor=#d5e8d4;strokeColor=#82b366;" edge="1" parent="aapR3voiLKvlNVhLNO4_-8" source="aapR3voiLKvlNVhLNO4_-35" target="aapR3voiLKvlNVhLNO4_-59">
          <mxGeometry relative="1" as="geometry">
            <Array as="points">
              <mxPoint x="670" y="670" />
              <mxPoint x="670" y="520" />
            </Array>
          </mxGeometry>
        </mxCell>
        <mxCell id="aapR3voiLKvlNVhLNO4_-67" style="edgeStyle=orthogonalEdgeStyle;rounded=0;orthogonalLoop=1;jettySize=auto;html=1;endArrow=none;endFill=0;fillColor=#d5e8d4;strokeColor=#82b366;" edge="1" parent="aapR3voiLKvlNVhLNO4_-8" source="aapR3voiLKvlNVhLNO4_-39" target="aapR3voiLKvlNVhLNO4_-59">
          <mxGeometry relative="1" as="geometry">
            <mxPoint x="760" y="550" as="targetPoint" />
            <Array as="points">
              <mxPoint x="670" y="785" />
              <mxPoint x="670" y="520" />
            </Array>
          </mxGeometry>
        </mxCell>
        <mxCell id="aapR3voiLKvlNVhLNO4_-72" value="Change job status" style="ellipse;whiteSpace=wrap;html=1;" vertex="1" parent="aapR3voiLKvlNVhLNO4_-8">
          <mxGeometry x="20" y="115" width="90" height="50" as="geometry" />
        </mxCell>
        <mxCell id="aapR3voiLKvlNVhLNO4_-73" style="edgeStyle=orthogonalEdgeStyle;rounded=0;orthogonalLoop=1;jettySize=auto;html=1;endArrow=none;endFill=0;entryX=0;entryY=0.5;entryDx=0;entryDy=0;fillColor=#e1d5e7;strokeColor=#9673a6;" edge="1" parent="aapR3voiLKvlNVhLNO4_-8" source="aapR3voiLKvlNVhLNO4_-57" target="aapR3voiLKvlNVhLNO4_-14">
          <mxGeometry relative="1" as="geometry">
            <mxPoint x="70" y="590" as="targetPoint" />
            <Array as="points">
              <mxPoint x="10" y="530" />
              <mxPoint x="10" y="589" />
              <mxPoint x="75" y="589" />
            </Array>
          </mxGeometry>
        </mxCell>
        <mxCell id="aapR3voiLKvlNVhLNO4_-75" value="Record job details" style="ellipse;whiteSpace=wrap;html=1;" vertex="1" parent="aapR3voiLKvlNVhLNO4_-8">
          <mxGeometry x="100" y="60" width="75" height="45" as="geometry" />
        </mxCell>
        <mxCell id="aapR3voiLKvlNVhLNO4_-92" style="edgeStyle=orthogonalEdgeStyle;rounded=0;orthogonalLoop=1;jettySize=auto;html=1;entryX=0;entryY=0.5;entryDx=0;entryDy=0;dashed=1;" edge="1" parent="aapR3voiLKvlNVhLNO4_-8" source="aapR3voiLKvlNVhLNO4_-76" target="aapR3voiLKvlNVhLNO4_-87">
          <mxGeometry relative="1" as="geometry" />
        </mxCell>
        <mxCell id="aapR3voiLKvlNVhLNO4_-95" value="&amp;lt;&amp;lt;includes&amp;gt;&amp;gt;" style="edgeLabel;html=1;align=center;verticalAlign=middle;resizable=0;points=[];" vertex="1" connectable="0" parent="aapR3voiLKvlNVhLNO4_-92">
          <mxGeometry x="-0.505" y="1" relative="1" as="geometry">
            <mxPoint x="9" y="-12" as="offset" />
          </mxGeometry>
        </mxCell>
        <mxCell id="aapR3voiLKvlNVhLNO4_-76" value="Record time spent on job" style="ellipse;whiteSpace=wrap;html=1;" vertex="1" parent="aapR3voiLKvlNVhLNO4_-8">
          <mxGeometry x="195" y="90" width="90" height="55" as="geometry" />
        </mxCell>
        <mxCell id="aapR3voiLKvlNVhLNO4_-83" style="edgeStyle=orthogonalEdgeStyle;rounded=0;orthogonalLoop=1;jettySize=auto;html=1;dashed=1;entryX=0.538;entryY=0.961;entryDx=0;entryDy=0;entryPerimeter=0;endArrow=none;endFill=0;startArrow=classic;startFill=1;" edge="1" parent="aapR3voiLKvlNVhLNO4_-8" source="aapR3voiLKvlNVhLNO4_-11" target="aapR3voiLKvlNVhLNO4_-75">
          <mxGeometry relative="1" as="geometry">
            <mxPoint x="140" y="110" as="targetPoint" />
            <Array as="points">
              <mxPoint x="120" y="180" />
              <mxPoint x="140" y="180" />
            </Array>
          </mxGeometry>
        </mxCell>
        <mxCell id="aapR3voiLKvlNVhLNO4_-90" value="&amp;lt;&amp;lt;extends&amp;gt;&amp;gt;" style="edgeLabel;html=1;align=center;verticalAlign=middle;resizable=0;points=[];" vertex="1" connectable="0" parent="aapR3voiLKvlNVhLNO4_-83">
          <mxGeometry x="-0.2488" y="2" relative="1" as="geometry">
            <mxPoint as="offset" />
          </mxGeometry>
        </mxCell>
        <mxCell id="aapR3voiLKvlNVhLNO4_-87" value="Save to the database" style="ellipse;whiteSpace=wrap;html=1;" vertex="1" parent="aapR3voiLKvlNVhLNO4_-8">
          <mxGeometry x="385" y="90" width="87" height="45" as="geometry" />
        </mxCell>
        <mxCell id="aapR3voiLKvlNVhLNO4_-88" style="edgeStyle=orthogonalEdgeStyle;rounded=0;orthogonalLoop=1;jettySize=auto;html=1;entryX=0.014;entryY=0.698;entryDx=0;entryDy=0;entryPerimeter=0;dashed=1;" edge="1" parent="aapR3voiLKvlNVhLNO4_-8" source="aapR3voiLKvlNVhLNO4_-72" target="aapR3voiLKvlNVhLNO4_-87">
          <mxGeometry relative="1" as="geometry">
            <Array as="points">
              <mxPoint x="354" y="160" />
            </Array>
          </mxGeometry>
        </mxCell>
        <mxCell id="aapR3voiLKvlNVhLNO4_-94" value="&amp;lt;&amp;lt;includes&amp;gt;&amp;gt;" style="edgeLabel;html=1;align=center;verticalAlign=middle;resizable=0;points=[];" vertex="1" connectable="0" parent="aapR3voiLKvlNVhLNO4_-88">
          <mxGeometry x="0.196" y="1" relative="1" as="geometry">
            <mxPoint x="69" y="-14" as="offset" />
          </mxGeometry>
        </mxCell>
        <mxCell id="aapR3voiLKvlNVhLNO4_-93" style="edgeStyle=orthogonalEdgeStyle;rounded=0;orthogonalLoop=1;jettySize=auto;html=1;entryX=0.382;entryY=0;entryDx=0;entryDy=0;entryPerimeter=0;dashed=1;" edge="1" parent="aapR3voiLKvlNVhLNO4_-8" source="aapR3voiLKvlNVhLNO4_-75" target="aapR3voiLKvlNVhLNO4_-87">
          <mxGeometry relative="1" as="geometry">
            <Array as="points">
              <mxPoint x="418" y="70" />
            </Array>
          </mxGeometry>
        </mxCell>
        <mxCell id="aapR3voiLKvlNVhLNO4_-96" value="&amp;lt;&amp;lt;includes&amp;gt;&amp;gt;" style="edgeLabel;html=1;align=center;verticalAlign=middle;resizable=0;points=[];" vertex="1" connectable="0" parent="aapR3voiLKvlNVhLNO4_-93">
          <mxGeometry x="0.1591" y="3" relative="1" as="geometry">
            <mxPoint as="offset" />
          </mxGeometry>
        </mxCell>
        <mxCell id="aapR3voiLKvlNVhLNO4_-97" value="Add client to job" style="ellipse;whiteSpace=wrap;html=1;" vertex="1" parent="aapR3voiLKvlNVhLNO4_-8">
          <mxGeometry x="360" y="850" width="110" height="50" as="geometry" />
        </mxCell>
        <mxCell id="aapR3voiLKvlNVhLNO4_-100" style="edgeStyle=orthogonalEdgeStyle;rounded=0;orthogonalLoop=1;jettySize=auto;html=1;entryX=1;entryY=0.5;entryDx=0;entryDy=0;dashed=1;" edge="1" parent="aapR3voiLKvlNVhLNO4_-8" source="aapR3voiLKvlNVhLNO4_-98" target="aapR3voiLKvlNVhLNO4_-97">
          <mxGeometry relative="1" as="geometry" />
        </mxCell>
        <mxCell id="aapR3voiLKvlNVhLNO4_-102" value="&amp;lt;&amp;lt;extends&amp;gt;&amp;gt;" style="edgeLabel;html=1;align=center;verticalAlign=middle;resizable=0;points=[];" vertex="1" connectable="0" parent="aapR3voiLKvlNVhLNO4_-100">
          <mxGeometry x="0.1778" y="-2" relative="1" as="geometry">
            <mxPoint x="15" y="2" as="offset" />
          </mxGeometry>
        </mxCell>
        <mxCell id="aapR3voiLKvlNVhLNO4_-98" value="Add new client" style="ellipse;whiteSpace=wrap;html=1;" vertex="1" parent="aapR3voiLKvlNVhLNO4_-8">
          <mxGeometry x="575" y="850" width="70" height="50" as="geometry" />
        </mxCell>
        <mxCell id="aapR3voiLKvlNVhLNO4_-99" style="edgeStyle=orthogonalEdgeStyle;rounded=0;orthogonalLoop=1;jettySize=auto;html=1;entryX=0.5;entryY=0;entryDx=0;entryDy=0;dashed=1;" edge="1" parent="aapR3voiLKvlNVhLNO4_-8" source="aapR3voiLKvlNVhLNO4_-38" target="aapR3voiLKvlNVhLNO4_-97">
          <mxGeometry relative="1" as="geometry">
            <Array as="points">
              <mxPoint x="335" y="820" />
              <mxPoint x="415" y="820" />
            </Array>
          </mxGeometry>
        </mxCell>
        <mxCell id="aapR3voiLKvlNVhLNO4_-101" value="&amp;lt;&amp;lt;includes&amp;gt;&amp;gt;" style="edgeLabel;html=1;align=center;verticalAlign=middle;resizable=0;points=[];" vertex="1" connectable="0" parent="aapR3voiLKvlNVhLNO4_-99">
          <mxGeometry x="-0.1026" y="-1" relative="1" as="geometry">
            <mxPoint x="36" y="9" as="offset" />
          </mxGeometry>
        </mxCell>
        <mxCell id="aapR3voiLKvlNVhLNO4_-104" value="Assign employee" style="ellipse;whiteSpace=wrap;html=1;" vertex="1" parent="aapR3voiLKvlNVhLNO4_-8">
          <mxGeometry x="210" y="850" width="100" height="50" as="geometry" />
        </mxCell>
        <mxCell id="aapR3voiLKvlNVhLNO4_-106" style="edgeStyle=orthogonalEdgeStyle;rounded=0;orthogonalLoop=1;jettySize=auto;html=1;entryX=0.323;entryY=0.975;entryDx=0;entryDy=0;entryPerimeter=0;dashed=1;" edge="1" parent="aapR3voiLKvlNVhLNO4_-8" source="aapR3voiLKvlNVhLNO4_-104" target="aapR3voiLKvlNVhLNO4_-38">
          <mxGeometry relative="1" as="geometry">
            <Array as="points">
              <mxPoint x="260" y="820" />
              <mxPoint x="312" y="820" />
            </Array>
          </mxGeometry>
        </mxCell>
        <mxCell id="aapR3voiLKvlNVhLNO4_-107" value="&amp;lt;&amp;lt;extends&amp;gt;&amp;gt;" style="edgeLabel;html=1;align=center;verticalAlign=middle;resizable=0;points=[];" vertex="1" connectable="0" parent="aapR3voiLKvlNVhLNO4_-106">
          <mxGeometry x="-0.7014" y="1" relative="1" as="geometry">
            <mxPoint as="offset" />
          </mxGeometry>
        </mxCell>
        <mxCell id="aapR3voiLKvlNVhLNO4_-85" style="edgeStyle=orthogonalEdgeStyle;rounded=0;orthogonalLoop=1;jettySize=auto;html=1;endArrow=none;endFill=0;fillColor=#fff2cc;strokeColor=#d6b656;" edge="1" parent="1" source="aapR3voiLKvlNVhLNO4_-69" target="aapR3voiLKvlNVhLNO4_-72">
          <mxGeometry relative="1" as="geometry" />
        </mxCell>
        <mxCell id="aapR3voiLKvlNVhLNO4_-86" style="edgeStyle=orthogonalEdgeStyle;rounded=0;orthogonalLoop=1;jettySize=auto;html=1;entryX=0.5;entryY=0;entryDx=0;entryDy=0;endArrow=none;endFill=0;fillColor=#fff2cc;strokeColor=#d6b656;" edge="1" parent="1" source="aapR3voiLKvlNVhLNO4_-69" target="aapR3voiLKvlNVhLNO4_-76">
          <mxGeometry relative="1" as="geometry">
            <Array as="points">
              <mxPoint x="55" y="130" />
              <mxPoint x="380" y="130" />
            </Array>
          </mxGeometry>
        </mxCell>
        <mxCell id="aapR3voiLKvlNVhLNO4_-69" value="Worker" style="shape=umlActor;verticalLabelPosition=bottom;verticalAlign=top;html=1;outlineConnect=0;" vertex="1" parent="1">
          <mxGeometry x="40" y="190" width="30" height="60" as="geometry" />
        </mxCell>
        <mxCell id="aapR3voiLKvlNVhLNO4_-71" style="edgeStyle=orthogonalEdgeStyle;rounded=0;orthogonalLoop=1;jettySize=auto;html=1;" edge="1" parent="1" source="aapR3voiLKvlNVhLNO4_-54" target="aapR3voiLKvlNVhLNO4_-69">
          <mxGeometry relative="1" as="geometry" />
        </mxCell>
        <mxCell id="aapR3voiLKvlNVhLNO4_-74" style="edgeStyle=orthogonalEdgeStyle;rounded=0;orthogonalLoop=1;jettySize=auto;html=1;entryX=0.5;entryY=0;entryDx=0;entryDy=0;endArrow=none;endFill=0;fillColor=#fff2cc;strokeColor=#d6b656;" edge="1" parent="1" source="aapR3voiLKvlNVhLNO4_-69" target="aapR3voiLKvlNVhLNO4_-11">
          <mxGeometry relative="1" as="geometry">
            <Array as="points">
              <mxPoint x="100" y="220" />
              <mxPoint x="100" y="320" />
              <mxPoint x="245" y="320" />
            </Array>
          </mxGeometry>
        </mxCell>
        <mxCell id="aapR3voiLKvlNVhLNO4_-80" style="edgeStyle=orthogonalEdgeStyle;rounded=0;orthogonalLoop=1;jettySize=auto;html=1;entryX=0.003;entryY=0.368;entryDx=0;entryDy=0;entryPerimeter=0;endArrow=none;endFill=0;fillColor=#fff2cc;strokeColor=#d6b656;" edge="1" parent="1" source="aapR3voiLKvlNVhLNO4_-69" target="aapR3voiLKvlNVhLNO4_-75">
          <mxGeometry relative="1" as="geometry">
            <Array as="points">
              <mxPoint x="55" y="157" />
              <mxPoint x="160" y="157" />
            </Array>
          </mxGeometry>
        </mxCell>
      </root>
    </mxGraphModel>
  </diagram>
</mxfile>
